# xmcd
#
# Track frame offsets: 
#        150
#        12231
#        24669
#        36643
#        49246
#        60427
#        73956
#        86170
#        99470
#        111372
#        122475
#        134573
#        145553
#        159040
#        171243
#        181175
#        191637
#        204362
#        213715
#        225908
#
# Disc length: 3154 seconds
#
# Revision: 3
# Processed by: cddbd v1.5.2PL0 Copyright (c) Steve Scherf et al.
# Submitted via: ExactAudioCopy v1.1
#
DISCID=1b0c5014
DTITLE=Various Artist - CD10_1950-51
DYEAR=2006
DGENRE=Country
TTITLE0=Bill Strenght (1950) - Black Coffee Blues
TTITLE1=Buster Martin (1950) - Herbie's Steel Guitar Polka
TTITLE2=Jesse James (1950) - Rag Mop
TTITLE3=Dickie McBride (1950) - I Don't Get No Lovin'
TTITLE4=Cotton Thompson (1950)  - How Long
TTITLE5=Stuart Hamblen (1950) - Remember Me
TTITLE6=Hank Williams (1951) - Cold Cold Heart
TTITLE7=Lefty Frezzell (1950) - If You've Got The Money
TTITLE8=Keith Loyd (1950) - My Western Union Baby
TTITLE9=Eddie Miller (1950) - Release Me
TTITLE10=Hank Thompson (1951) - The Wild Side Of Life
TTITLE11=Hank Williams (1951) - Lonesome Whistle
TTITLE12=Leaon McAuliffe (1951) - Blue Guitar Stomp
TTITLE13=Jerry Irby (1951) - Trouble In Mind
TTITLE14=Tennessee Ernie Ford (1951) - Rock City Boogie
TTITLE15=Tennessee Ernie Ford (1951) - Taylor Made Woman
TTITLE16=Carl Smith (1951) - Let Old Mother Nature
TTITLE17=Tennessee Ernie Ford (1951) - Kissin' Bug Boogie
TTITLE18=L. Flatt and E. Scruggs (1951) - Don't Get Above Your Raisin'
TTITLE19=Johnny Hicks (1951) - Get Your Kicks
EXTD=
EXTT0=
EXTT1=
EXTT2=
EXTT3=
EXTT4=
EXTT5=
EXTT6=
EXTT7=
EXTT8=
EXTT9=
EXTT10=
EXTT11=
EXTT12=
EXTT13=
EXTT14=
EXTT15=
EXTT16=
EXTT17=
EXTT18=
EXTT19=
PLAYORDER=
